<?xml version="1.0" encoding="UTF-8"?>
<svg width="512" height="512" viewBox="0 0 512 512" xmlns="http://www.w3.org/2000/svg">
  <defs>
    <linearGradient id="bg" x1="0%" y1="0%" x2="100%" y2="100%">
      <stop offset="0%" style="stop-color:#0a0a0a"/>
      <stop offset="100%" style="stop-color:#1a1a2e"/>
    </linearGradient>
    <linearGradient id="main" x1="0%" y1="0%" x2="100%" y2="100%">
      <stop offset="0%" style="stop-color:#9945FF"/>
      <stop offset="100%" style="stop-color:#14F195"/>
    </linearGradient>
    <linearGradient id="accent" x1="0%" y1="0%" x2="100%" y2="0%">
      <stop offset="0%" style="stop-color:#14F195"/>
      <stop offset="100%" style="stop-color:#9945FF"/>
    </linearGradient>
    <filter id="glow">
      <feGaussianBlur stdDeviation="4" result="coloredBlur"/>
      <feMerge>
        <feMergeNode in="coloredBlur"/>
        <feMergeNode in="SourceGraphic"/>
      </feMerge>
    </filter>
  </defs>

  <!-- Background -->
  <rect width="512" height="512" rx="80" fill="url(#bg)"/>

  <!-- Outer ring (representing the automaton grid) -->
  <circle cx="256" cy="256" r="200" fill="none" stroke="url(#main)" stroke-width="3" opacity="0.3"/>
  <circle cx="256" cy="256" r="180" fill="none" stroke="url(#main)" stroke-width="1" opacity="0.15"/>

  <!-- Anvil - main icon -->
  <g transform="translate(256, 256) scale(2.8)" filter="url(#glow)">
    <!-- Anvil body -->
    <path d="M-40 20 L-25 -10 L25 -10 L40 20 Z" fill="url(#main)" opacity="0.95"/>
    <!-- Anvil face -->
    <rect x="-30" y="-22" width="60" height="14" rx="3" fill="url(#accent)"/>
    <!-- Horn -->
    <path d="M-30 -15 L-50 -18 L-48 -12 L-30 -10 Z" fill="url(#main)" opacity="0.8"/>

    <!-- Hammer -->
    <g transform="rotate(-20, 0, -40)">
      <rect x="-4" y="-55" width="8" height="32" rx="2" fill="#14F195"/>
      <rect x="-12" y="-65" width="24" height="14" rx="4" fill="url(#main)"/>
    </g>

    <!-- Sparks -->
    <circle cx="15" cy="-30" r="3" fill="#14F195" opacity="0.9"/>
    <circle cx="25" cy="-38" r="2" fill="#FFD700" opacity="0.7"/>
    <circle cx="20" cy="-45" r="1.5" fill="#9945FF" opacity="0.8"/>
    <circle cx="30" cy="-28" r="1.5" fill="#14F195" opacity="0.6"/>
    <circle cx="8" cy="-42" r="2" fill="#FFD700" opacity="0.5"/>
  </g>

  <!-- Conway cells - small dots around the ring representing the automaton -->
  <circle cx="256" cy="56" r="6" fill="#14F195" opacity="0.8"/>
  <circle cx="370" cy="100" r="5" fill="#9945FF" opacity="0.6"/>
  <circle cx="430" cy="200" r="4" fill="#14F195" opacity="0.5"/>
  <circle cx="440" cy="310" r="6" fill="#9945FF" opacity="0.7"/>
  <circle cx="380" cy="410" r="5" fill="#14F195" opacity="0.6"/>
  <circle cx="256" cy="456" r="4" fill="#9945FF" opacity="0.5"/>
  <circle cx="132" cy="410" r="5" fill="#14F195" opacity="0.7"/>
  <circle cx="72" cy="310" r="6" fill="#9945FF" opacity="0.6"/>
  <circle cx="82" cy="200" r="4" fill="#14F195" opacity="0.5"/>
  <circle cx="142" cy="100" r="5" fill="#9945FF" opacity="0.8"/>

  <!-- Connecting lines between cells (automaton connections) -->
  <line x1="256" y1="56" x2="370" y2="100" stroke="#14F195" stroke-width="1" opacity="0.2"/>
  <line x1="370" y1="100" x2="430" y2="200" stroke="#9945FF" stroke-width="1" opacity="0.15"/>
  <line x1="440" y1="310" x2="380" y2="410" stroke="#14F195" stroke-width="1" opacity="0.2"/>
  <line x1="132" y1="410" x2="72" y2="310" stroke="#9945FF" stroke-width="1" opacity="0.15"/>
  <line x1="82" y1="200" x2="142" y2="100" stroke="#14F195" stroke-width="1" opacity="0.2"/>
  <line x1="142" y1="100" x2="256" y2="56" stroke="#9945FF" stroke-width="1" opacity="0.15"/>
</svg>
